<svg width="16" height="16" fill="none" xmlns="http://www.w3.org/2000/svg"><path opacity=".9" d="M4.5 7.344H2.75a.438.438 0 0 0-.438.437v.438c0 .241.196.437.438.437H4.5a.438.438 0 0 0 .438-.437V7.78a.438.438 0 0 0-.438-.437ZM8.875 7.344h-1.75a.438.438 0 0 0-.438.437v.438c0 .241.196.437.438.437h1.75a.438.438 0 0 0 .438-.437V7.78a.438.438 0 0 0-.438-.437ZM13.25 7.344H11.5a.438.438 0 0 0-.438.437v.438c0 .241.196.437.438.437h1.75a.438.438 0 0 0 .438-.437V7.78a.438.438 0 0 0-.438-.437Z" fill="#5E5E5F"/></svg>