<svg fill="#ffae00" height="64" width="64" version="1.1" id="Layer_1" xmlns="http://www.w3.org/2000/svg" viewBox="0 0 330 330" xml:space="preserve" stroke="#ffae00" stroke-width=".003"><g id="SVGRepo_iconCarrier"><g id="XMLID_26_"><path id="XMLID_27_" d="M165 0C74.019 0 0 74.019 0 165s74.019 165 165 165 165-74.019 165-165S255.981 0 165 0zm0 300c-74.44 0-135-60.561-135-135S90.56 30 165 30s135 60.561 135 135-60.561 135-135 135z"/><path id="XMLID_30_" d="M215.911 200.912H114.088a15.002 15.002 0 0 0-10.606 25.607C119.914 242.95 141.762 252 165 252s45.086-9.05 61.518-25.481a15.001 15.001 0 0 0-10.607-25.607z"/><path id="XMLID_31_" d="M115.14 147.14c3.72-3.72 5.86-8.88 5.86-14.14s-2.14-10.42-5.86-14.141C111.42 115.14 106.26 113 101 113c-5.27 0-10.42 2.14-14.14 5.859C83.13 122.58 81 127.74 81 133s2.13 10.42 5.86 14.14c3.72 3.72 8.88 5.86 14.14 5.86s10.42-2.141 14.14-5.86z"/><path id="XMLID_71_" d="M229 113c-5.26 0-10.42 2.14-14.14 5.859-3.72 3.721-5.86 8.87-5.86 14.141 0 5.26 2.14 10.42 5.86 14.14 3.72 3.72 8.88 5.86 14.14 5.86s10.42-2.141 14.14-5.86c3.73-3.72 5.86-8.88 5.86-14.14s-2.13-10.42-5.86-14.141A20.137 20.137 0 0 0 229 113z"/></g></g></svg>